<svg viewBox="0 0 300 300" width="300" xmlns="http://www.w3.org/2000/svg" style="display:block;color:#10181C" ><g transform="translate(40 0)"><path d="M151.7 47 A74 74 0 1 0 149.5 155" fill="none" stroke="currentColor" stroke-width="9" stroke-linecap="round"></path><path d="M56 151 L232 151" stroke="currentColor" stroke-width="4.5" stroke-linecap="round" opacity=".5"></path><g transform="translate(62 148) scale(0.74)" opacity=".45" fill="none" stroke="currentColor" stroke-linecap="round" stroke-linejoin="round"><mask id="k24" maskUnits="userSpaceOnUse" x="-40" y="-120" width="100" height="130"><rect x="-40" y="-120" width="100" height="130" fill="#fff" stroke="none"></rect><path d="M2.5 -76 L0 -38" stroke="#000" stroke-width="17.5"></path></mask><g mask="url(#k24)"><path d="M1.5 -64 L-10 -42" stroke-width="7.5"></path><g transform="translate(-10 -42) rotate(116) scale(0.75)"><path d="M-1.5 -4.2 L10.5 -4.4 C13.8 -4.4 15.6 -2.4 15.6 0 C15.6 2.4 13.8 4.2 10.5 4.2 L-1.5 4.2 Z" stroke="none" fill="currentColor"></path><path d="M2 -3.6 L5.6 -7.8" stroke-width="3.6"></path></g></g><circle cx="3.5" cy="-92" r="10" fill="currentColor" stroke="none"></circle><path d="M2.5 -76 L0 -38" stroke-width="12.5"></path><path d="M0 -38 L11 -3 M0 -38 L-11 -3" stroke-width="9.5"></path><path d="M4 -65 L17 -65" stroke-width="7.5"></path><g transform="translate(17 -65) rotate(0) scale(0.8)"><path d="M-1.5 -4.2 L10.5 -4.4 C13.8 -4.4 15.6 -2.4 15.6 0 C15.6 2.4 13.8 4.2 10.5 4.2 L-1.5 4.2 Z" stroke="none" fill="currentColor"></path><path d="M2 -3.6 L5.6 -7.8" stroke-width="3.6"></path></g></g><g transform="translate(90 148) scale(0.87)" opacity=".7" fill="none" stroke="currentColor" stroke-linecap="round" stroke-linejoin="round"><mask id="k25" maskUnits="userSpaceOnUse" x="-40" y="-120" width="100" height="130"><rect x="-40" y="-120" width="100" height="130" fill="#fff" stroke="none"></rect><path d="M2.5 -76 L0 -38" stroke="#000" stroke-width="17.5"></path></mask><g mask="url(#k25)"><path d="M1.5 -64 L-10 -42" stroke-width="7.5"></path><g transform="translate(-10 -42) rotate(116) scale(0.75)"><path d="M-1.5 -4.2 L10.5 -4.4 C13.8 -4.4 15.6 -2.4 15.6 0 C15.6 2.4 13.8 4.2 10.5 4.2 L-1.5 4.2 Z" stroke="none" fill="currentColor"></path><path d="M2 -3.6 L5.6 -7.8" stroke-width="3.6"></path></g></g><circle cx="3.5" cy="-92" r="10" fill="currentColor" stroke="none"></circle><path d="M2.5 -76 L0 -38" stroke-width="12.5"></path><path d="M0 -38 L11 -3 M0 -38 L-11 -3" stroke-width="9.5"></path><path d="M4 -65 L17 -65" stroke-width="7.5"></path><g transform="translate(17 -65) rotate(0) scale(0.8)"><path d="M-1.5 -4.2 L10.5 -4.4 C13.8 -4.4 15.6 -2.4 15.6 0 C15.6 2.4 13.8 4.2 10.5 4.2 L-1.5 4.2 Z" stroke="none" fill="currentColor"></path><path d="M2 -3.6 L5.6 -7.8" stroke-width="3.6"></path></g></g><g transform="translate(122 148) scale(1)" opacity="1" fill="none" stroke="currentColor" stroke-linecap="round" stroke-linejoin="round"><mask id="k26" maskUnits="userSpaceOnUse" x="-40" y="-120" width="100" height="130"><rect x="-40" y="-120" width="100" height="130" fill="#fff" stroke="none"></rect><path d="M2.5 -76 L0 -38" stroke="#000" stroke-width="17.5"></path></mask><g mask="url(#k26)"><path d="M1.5 -64 L-10 -42" stroke-width="7.5"></path><g transform="translate(-10 -42) rotate(116) scale(0.75)"><path d="M-1.5 -4.2 L10.5 -4.4 C13.8 -4.4 15.6 -2.4 15.6 0 C15.6 2.4 13.8 4.2 10.5 4.2 L-1.5 4.2 Z" stroke="none" fill="currentColor"></path><path d="M2 -3.6 L5.6 -7.8" stroke-width="3.6"></path></g></g><circle cx="3.5" cy="-92" r="10" fill="currentColor" stroke="none"></circle><path d="M2.5 -76 L0 -38" stroke-width="12.5"></path><path d="M0 -38 L11 -3 M0 -38 L-11 -3" stroke-width="9.5"></path><path d="M4 -66 L36 -71.5" stroke-width="8"></path><g transform="translate(36 -71.5) rotate(-9.75) scale(1.0)"><path d="M-1.5 -4.2 L10.5 -4.4 C13.8 -4.4 15.6 -2.4 15.6 0 C15.6 2.4 13.8 4.2 10.5 4.2 L-1.5 4.2 Z" stroke="none" fill="currentColor"></path><path d="M2 -3.6 L5.6 -7.8" stroke-width="3.6"></path></g></g></g><text x="150" y="232" text-anchor="middle" font-family="Poppins, sans-serif" font-weight="800" font-size="38" letter-spacing="1" fill="currentColor">DIRECÇÕES</text><text x="150" y="272" text-anchor="middle" font-family="Poppins, sans-serif" font-weight="800" font-size="38" letter-spacing="1" fill="#0E7C82">DA SEMANA</text></svg>